<svg xmlns="http://www.w3.org/2000/svg" viewBox="0 0 35 30">
  <path
    fill="#0eaaa9"
    d="M14.887 0A15 15 0 0 0 0 15a15 15 0 0 0 15 15 15 15 0 0 0 15-15A15 15 0 0 0 15 0a15 15 0 0 0-.113 0zM15 4.5A10.5 10.5 0 0 1 25.5 15 10.5 10.5 0 0 1 15 25.5 10.5 10.5 0 0 1 4.5 15 10.5 10.5 0 0 1 15 4.5z"
  />
  <circle cx="24.3" cy="13.1" r="10.7" fill="#4eb0d8" />
  <path
    fill="#0d2b65"
    d="M23.223 2.455a10.7 10.7 0 0 0-5.688 2.357A10.5 10.5 0 0 1 25.5 15a10.5 10.5 0 0 1-4.172 8.379 10.7 10.7 0 0 0 2.973.422 10.7 10.7 0 0 0 3.183-.487A15 15 0 0 0 30 15a15 15 0 0 0-6.777-12.545z"
  />
</svg>
